# Blender v3.4.0 OBJ File: ''
# www.blender.org
mtllib flat_sphere.mtl
o Sphere
v 0.000000 0.587785 -0.809017
v 0.000000 0.000000 -1.000000
v 0.000000 -0.309017 -0.951057
v 0.000000 -0.587785 -0.809017
v 0.000000 -0.951057 -0.309017
v 0.118256 0.951057 -0.285494
v 0.224936 0.809017 -0.543043
v 0.309597 0.587785 -0.747434
v 0.363954 0.309017 -0.878662
v 0.382683 0.000000 -0.923880
v 0.363954 -0.309017 -0.878662
v 0.309597 -0.587785 -0.747434
v 0.224936 -0.809017 -0.543043
v 0.118256 -0.951057 -0.285494
v 0.218508 0.951057 -0.218508
v 0.415627 0.809017 -0.415627
v 0.572061 0.587785 -0.572061
v 0.672499 0.309017 -0.672498
v 0.707107 0.000000 -0.707107
v 0.672499 -0.309017 -0.672498
v 0.572061 -0.587785 -0.572061
v 0.415627 -0.809017 -0.415627
v 0.218508 -0.951057 -0.218508
v 0.285495 0.951057 -0.118256
v 0.543043 0.809017 -0.224936
v 0.747434 0.587785 -0.309597
v 0.878662 0.309017 -0.363954
v 0.923880 0.000000 -0.382683
v 0.878662 -0.309017 -0.363954
v 0.747434 -0.587785 -0.309597
v 0.543043 -0.809017 -0.224936
v 0.285495 -0.951057 -0.118256
v 0.309017 0.951057 0.000000
v 0.587785 0.809017 0.000000
v 0.809017 0.587785 0.000000
v 0.951056 0.309017 0.000000
v 1.000000 0.000000 0.000000
v 0.951056 -0.309017 0.000000
v 0.809017 -0.587785 0.000000
v 0.587785 -0.809017 0.000000
v 0.309017 -0.951057 0.000000
v 0.285494 0.951057 0.118256
v 0.543043 0.809017 0.224936
v 0.747434 0.587785 0.309598
v 0.878662 0.309017 0.363954
v 0.923879 0.000000 0.382684
v 0.878662 -0.309017 0.363954
v 0.747434 -0.587785 0.309598
v 0.543043 -0.809017 0.224936
v 0.285494 -0.951057 0.118256
v 0.218508 0.951057 0.218508
v 0.415627 0.809017 0.415627
v 0.572061 0.587785 0.572061
v 0.672498 0.309017 0.672499
v 0.707107 0.000000 0.707107
v 0.672498 -0.309017 0.672499
v 0.572061 -0.587785 0.572061
v 0.415627 -0.809017 0.415627
v 0.218508 -0.951057 0.218508
v 0.118256 0.951057 0.285495
v 0.224935 0.809017 0.543043
v 0.309597 0.587785 0.747434
v 0.363953 0.309017 0.878662
v 0.382683 0.000000 0.923880
v 0.363953 -0.309017 0.878662
v 0.309597 -0.587785 0.747434
v 0.224935 -0.809017 0.543043
v 0.118256 -0.951057 0.285495
v -0.000000 0.951057 0.309017
v -0.000000 0.809017 0.587785
v -0.000000 0.587785 0.809017
v -0.000000 0.309017 0.951056
v -0.000000 0.000000 1.000000
v -0.000000 -0.309017 0.951056
v -0.000000 -0.587785 0.809017
v -0.000000 -0.809017 0.587785
v -0.000000 -0.951057 0.309017
v 0.000000 -1.000000 0.000000
v -0.118256 0.951057 0.285494
v -0.224936 0.809017 0.543043
v -0.309598 0.587785 0.747434
v -0.363954 0.309017 0.878661
v -0.382684 0.000000 0.923879
v -0.363954 -0.309017 0.878661
v -0.309598 -0.587785 0.747434
v -0.224936 -0.809017 0.543043
v -0.118256 -0.951057 0.285494
v 0.000000 1.000000 0.000000
v -0.218508 0.951057 0.218508
v -0.415627 0.809017 0.415627
v -0.572061 0.587785 0.572061
v -0.672499 0.309017 0.672498
v -0.707107 0.000000 0.707106
v -0.672499 -0.309017 0.672498
v -0.572061 -0.587785 0.572061
v -0.415627 -0.809017 0.415627
v -0.218508 -0.951057 0.218508
v -0.285495 0.951057 0.118256
v -0.543043 0.809017 0.224935
v -0.747434 0.587785 0.309597
v -0.878662 0.309017 0.363953
v -0.923880 0.000000 0.382683
v -0.878662 -0.309017 0.363953
v -0.747434 -0.587785 0.309597
v -0.543043 -0.809017 0.224935
v -0.285495 -0.951057 0.118256
v -0.309017 0.951057 -0.000000
v -0.587785 0.809017 -0.000000
v -0.809017 0.587785 -0.000000
v -0.951056 0.309017 -0.000000
v -1.000000 0.000000 -0.000001
v -0.951056 -0.309017 -0.000000
v -0.809017 -0.587785 -0.000000
v -0.587785 -0.809017 -0.000000
v -0.309017 -0.951057 -0.000000
v -0.285494 0.951057 -0.118256
v -0.543042 0.809017 -0.224936
v -0.747434 0.587785 -0.309598
v -0.878661 0.309017 -0.363954
v -0.923879 0.000000 -0.382684
v -0.878661 -0.309017 -0.363954
v -0.747434 -0.587785 -0.309598
v -0.543042 -0.809017 -0.224936
v -0.285494 -0.951057 -0.118256
v -0.218508 0.951057 -0.218508
v -0.415627 0.809017 -0.415627
v -0.572061 0.587785 -0.572061
v -0.672498 0.309017 -0.672499
v -0.707106 0.000000 -0.707107
v -0.672498 -0.309017 -0.672499
v -0.572061 -0.587785 -0.572061
v -0.415627 -0.809017 -0.415627
v -0.218508 -0.951057 -0.218508
v -0.118256 0.951057 -0.285495
v -0.224935 0.809017 -0.543043
v -0.309597 0.587785 -0.747434
v -0.363953 0.309017 -0.878662
v -0.382683 0.000000 -0.923880
v -0.363953 -0.309017 -0.878662
v -0.309597 -0.587785 -0.747434
v -0.224935 -0.809017 -0.543043
v -0.118256 -0.951057 -0.285495
v 0.000000 0.951057 -0.309017
v 0.000000 0.809017 -0.587785
v 0.000001 0.309017 -0.951056
v 0.000000 -0.809017 -0.587785
vt 0.750000 0.400000
vt 0.750000 0.500000
vt 0.687500 0.500000
vt 0.687500 0.400000
vt 0.750000 0.700000
vt 0.750000 0.800000
vt 0.687500 0.800000
vt 0.687500 0.700000
vt 0.718750 0.000000
vt 0.750000 0.100000
vt 0.687500 0.100000
vt 0.750000 0.300000
vt 0.687500 0.300000
vt 0.750000 0.600000
vt 0.687500 0.600000
vt 0.750000 0.900000
vt 0.718750 1.000000
vt 0.687500 0.900000
vt 0.750000 0.200000
vt 0.687500 0.200000
vt 0.625000 0.500000
vt 0.625000 0.400000
vt 0.625000 0.800000
vt 0.625000 0.700000
vt 0.656250 0.000000
vt 0.625000 0.100000
vt 0.625000 0.300000
vt 0.625000 0.600000
vt 0.656250 1.000000
vt 0.625000 0.900000
vt 0.625000 0.200000
vt 0.562500 0.900000
vt 0.562500 0.800000
vt 0.562500 0.200000
vt 0.562500 0.100000
vt 0.562500 0.500000
vt 0.562500 0.400000
vt 0.562500 0.700000
vt 0.593750 0.000000
vt 0.562500 0.300000
vt 0.562500 0.600000
vt 0.593750 1.000000
vt 0.500000 0.600000
vt 0.500000 0.500000
vt 0.500000 0.900000
vt 0.500000 0.800000
vt 0.500000 0.200000
vt 0.500000 0.100000
vt 0.500000 0.400000
vt 0.500000 0.700000
vt 0.531250 0.000000
vt 0.500000 0.300000
vt 0.531250 1.000000
vt 0.468750 1.000000
vt 0.437500 0.900000
vt 0.437500 0.300000
vt 0.437500 0.200000
vt 0.437500 0.600000
vt 0.437500 0.500000
vt 0.437500 0.800000
vt 0.437500 0.100000
vt 0.437500 0.400000
vt 0.437500 0.700000
vt 0.468750 0.000000
vt 0.375000 0.400000
vt 0.375000 0.300000
vt 0.375000 0.700000
vt 0.375000 0.600000
vt 0.406250 1.000000
vt 0.375000 0.900000
vt 0.375000 0.200000
vt 0.375000 0.500000
vt 0.375000 0.800000
vt 0.375000 0.100000
vt 0.406250 0.000000
vt 0.312500 0.800000
vt 0.312500 0.700000
vt 0.343750 0.000000
vt 0.312500 0.100000
vt 0.312500 0.400000
vt 0.312500 0.300000
vt 0.312500 0.600000
vt 0.343750 1.000000
vt 0.312500 0.900000
vt 0.312500 0.200000
vt 0.312500 0.500000
vt 0.250000 0.500000
vt 0.250000 0.400000
vt 0.250000 0.800000
vt 0.250000 0.700000
vt 0.281250 0.000000
vt 0.250000 0.100000
vt 0.250000 0.300000
vt 0.250000 0.600000
vt 0.281250 1.000000
vt 0.250000 0.900000
vt 0.250000 0.200000
vt 0.187500 0.900000
vt 0.187500 0.800000
vt 0.187500 0.200000
vt 0.187500 0.100000
vt 0.187500 0.500000
vt 0.187500 0.400000
vt 0.187500 0.700000
vt 0.218750 0.000000
vt 0.187500 0.300000
vt 0.187500 0.600000
vt 0.218750 1.000000
vt 0.125000 0.300000
vt 0.125000 0.200000
vt 0.125000 0.600000
vt 0.125000 0.500000
vt 0.125000 0.900000
vt 0.125000 0.800000
vt 0.125000 0.100000
vt 0.125000 0.400000
vt 0.125000 0.700000
vt 0.156250 0.000000
vt 0.156250 1.000000
vt 0.062500 0.700000
vt 0.062500 0.600000
vt 0.093750 1.000000
vt 0.062500 0.900000
vt 0.062500 0.300000
vt 0.062500 0.200000
vt 0.062500 0.500000
vt 0.062500 0.800000
vt 0.062500 0.100000
vt 0.062500 0.400000
vt 0.093750 0.000000
vt 0.000000 0.400000
vt 0.000000 0.300000
vt 0.000000 0.700000
vt 0.000000 0.600000
vt 0.031250 1.000000
vt 0.000000 0.900000
vt 0.000000 0.200000
vt 0.000000 0.500000
vt 0.000000 0.800000
vt 0.000000 0.100000
vt 0.031250 0.000000
vt 1.000000 0.700000
vt 1.000000 0.800000
vt 0.937500 0.800000
vt 0.937500 0.700000
vt 0.968750 0.000000
vt 1.000000 0.100000
vt 0.937500 0.100000
vt 1.000000 0.300000
vt 1.000000 0.400000
vt 0.937500 0.400000
vt 0.937500 0.300000
vt 1.000000 0.600000
vt 0.937500 0.600000
vt 1.000000 0.900000
vt 0.968750 1.000000
vt 0.937500 0.900000
vt 1.000000 0.200000
vt 0.937500 0.200000
vt 1.000000 0.500000
vt 0.937500 0.500000
vt 0.875000 0.200000
vt 0.875000 0.100000
vt 0.875000 0.500000
vt 0.875000 0.400000
vt 0.875000 0.800000
vt 0.875000 0.700000
vt 0.906250 0.000000
vt 0.875000 0.300000
vt 0.875000 0.600000
vt 0.906250 1.000000
vt 0.875000 0.900000
vt 0.812500 0.600000
vt 0.812500 0.500000
vt 0.812500 0.900000
vt 0.812500 0.800000
vt 0.812500 0.200000
vt 0.812500 0.100000
vt 0.812500 0.400000
vt 0.812500 0.700000
vt 0.843750 0.000000
vt 0.812500 0.300000
vt 0.843750 1.000000
vt 0.781250 1.000000
vt 0.781250 0.000000
vn 0.1928 -0.1535 -0.9692
vn 0.1393 0.7002 -0.7002
vn 0.0311 -0.9872 -0.1564
vn 0.1745 -0.4470 -0.8773
vn 0.1745 0.4470 -0.8773
vn 0.0311 0.9872 -0.1564
vn 0.1393 -0.7002 -0.7002
vn 0.1928 0.1535 -0.9692
vn 0.0899 0.8874 -0.4522
vn 0.0899 -0.8874 -0.4522
vn 0.5490 -0.1535 -0.8216
vn 0.3966 0.7002 -0.5936
vn 0.0886 -0.9872 -0.1326
vn 0.4970 -0.4470 -0.7438
vn 0.4970 0.4470 -0.7438
vn 0.0886 0.9872 -0.1326
vn 0.3966 -0.7002 -0.5936
vn 0.5490 0.1535 -0.8216
vn 0.2561 0.8874 -0.3833
vn 0.2561 -0.8874 -0.3833
vn 0.3833 0.8874 -0.2561
vn 0.3833 -0.8874 -0.2561
vn 0.8216 -0.1535 -0.5490
vn 0.5936 0.7002 -0.3966
vn 0.1326 -0.9872 -0.0886
vn 0.7438 -0.4470 -0.4970
vn 0.7438 0.4470 -0.4970
vn 0.1326 0.9872 -0.0886
vn 0.5936 -0.7002 -0.3966
vn 0.8216 0.1535 -0.5490
vn 0.9692 0.1535 -0.1928
vn 0.4522 0.8874 -0.0899
vn 0.4522 -0.8874 -0.0899
vn 0.9692 -0.1535 -0.1928
vn 0.7002 0.7002 -0.1393
vn 0.1564 -0.9872 -0.0311
vn 0.8773 -0.4470 -0.1745
vn 0.8773 0.4470 -0.1745
vn 0.1564 0.9872 -0.0311
vn 0.7002 -0.7002 -0.1393
vn 0.1564 0.9872 0.0311
vn 0.7002 -0.7002 0.1393
vn 0.9692 0.1535 0.1928
vn 0.4522 0.8874 0.0899
vn 0.4522 -0.8874 0.0899
vn 0.9692 -0.1535 0.1928
vn 0.7002 0.7002 0.1393
vn 0.1564 -0.9872 0.0311
vn 0.8773 -0.4470 0.1745
vn 0.8773 0.4470 0.1745
vn 0.7438 -0.4470 0.4970
vn 0.7438 0.4470 0.4970
vn 0.1326 0.9872 0.0886
vn 0.5936 -0.7002 0.3966
vn 0.8216 0.1535 0.5490
vn 0.3833 0.8874 0.2561
vn 0.3833 -0.8874 0.2561
vn 0.8216 -0.1535 0.5490
vn 0.5936 0.7002 0.3966
vn 0.1326 -0.9872 0.0886
vn 0.3966 0.7002 0.5936
vn 0.0886 -0.9872 0.1326
vn 0.4970 -0.4470 0.7438
vn 0.4970 0.4470 0.7438
vn 0.0886 0.9872 0.1326
vn 0.3966 -0.7002 0.5936
vn 0.5490 0.1535 0.8216
vn 0.2561 0.8874 0.3833
vn 0.2561 -0.8874 0.3833
vn 0.5490 -0.1535 0.8216
vn 0.1928 -0.1535 0.9692
vn 0.1393 0.7002 0.7002
vn 0.0311 -0.9872 0.1564
vn 0.1745 -0.4470 0.8773
vn 0.1745 0.4470 0.8773
vn 0.0311 0.9872 0.1564
vn 0.1393 -0.7002 0.7002
vn 0.1928 0.1535 0.9692
vn 0.0899 0.8874 0.4522
vn 0.0899 -0.8874 0.4522
vn -0.0899 0.8874 0.4522
vn -0.0899 -0.8874 0.4522
vn -0.1928 -0.1535 0.9692
vn -0.1393 0.7002 0.7002
vn -0.0311 -0.9872 0.1564
vn -0.1745 -0.4470 0.8773
vn -0.1745 0.4470 0.8773
vn -0.0311 0.9872 0.1564
vn -0.1393 -0.7002 0.7002
vn -0.1928 0.1535 0.9692
vn -0.3966 -0.7002 0.5936
vn -0.5490 0.1535 0.8216
vn -0.2561 0.8874 0.3833
vn -0.2561 -0.8874 0.3833
vn -0.5490 -0.1535 0.8216
vn -0.3966 0.7002 0.5936
vn -0.0886 -0.9872 0.1326
vn -0.4970 -0.4470 0.7438
vn -0.4970 0.4470 0.7438
vn -0.0886 0.9872 0.1326
vn -0.7438 0.4470 0.4970
vn -0.1326 0.9872 0.0886
vn -0.5936 -0.7002 0.3966
vn -0.8216 0.1535 0.5490
vn -0.3833 0.8874 0.2561
vn -0.3833 -0.8874 0.2561
vn -0.8216 -0.1535 0.5490
vn -0.5936 0.7002 0.3966
vn -0.1326 -0.9872 0.0886
vn -0.7438 -0.4470 0.4970
vn -0.8773 -0.4470 0.1745
vn -0.8773 0.4470 0.1745
vn -0.1564 0.9872 0.0311
vn -0.7002 -0.7002 0.1393
vn -0.9692 0.1535 0.1928
vn -0.4522 0.8874 0.0899
vn -0.4522 -0.8874 0.0899
vn -0.9692 -0.1535 0.1928
vn -0.7002 0.7002 0.1393
vn -0.1564 -0.9872 0.0311
vn -0.7002 0.7002 -0.1393
vn -0.1564 -0.9872 -0.0311
vn -0.8773 -0.4470 -0.1745
vn -0.8773 0.4470 -0.1745
vn -0.1564 0.9872 -0.0311
vn -0.7002 -0.7002 -0.1393
vn -0.9692 0.1535 -0.1928
vn -0.4522 0.8874 -0.0899
vn -0.4522 -0.8874 -0.0899
vn -0.9692 -0.1535 -0.1928
vn -0.3833 -0.8874 -0.2561
vn -0.8216 -0.1535 -0.5490
vn -0.5936 0.7002 -0.3966
vn -0.1326 -0.9872 -0.0886
vn -0.7438 -0.4470 -0.4970
vn -0.7438 0.4470 -0.4970
vn -0.1326 0.9872 -0.0886
vn -0.5936 -0.7002 -0.3966
vn -0.8216 0.1535 -0.5490
vn -0.3833 0.8874 -0.2561
vn -0.5490 0.1535 -0.8216
vn -0.2561 0.8874 -0.3833
vn -0.2561 -0.8874 -0.3833
vn -0.5490 -0.1535 -0.8216
vn -0.3966 0.7002 -0.5936
vn -0.0886 -0.9872 -0.1326
vn -0.4970 -0.4470 -0.7438
vn -0.4970 0.4470 -0.7438
vn -0.0886 0.9872 -0.1326
vn -0.3966 -0.7002 -0.5936
vn -0.0311 0.9872 -0.1564
vn -0.1393 -0.7002 -0.7002
vn -0.1928 0.1535 -0.9692
vn -0.0899 0.8874 -0.4522
vn -0.0899 -0.8874 -0.4522
vn -0.1928 -0.1535 -0.9692
vn -0.1393 0.7002 -0.7002
vn -0.0311 -0.9872 -0.1564
vn -0.1745 -0.4470 -0.8773
vn -0.1745 0.4470 -0.8773
usemtl Material.001
s off
f 3/1/1 2/2/1 10/3/1 11/4/1
f 1/5/2 144/6/2 7/7/2 8/8/2
f 78/9/3 5/10/3 14/11/3
f 4/12/4 3/1/4 11/4/4 12/13/4
f 145/14/5 1/5/5 8/8/5 9/15/5
f 143/16/6 88/17/6 6/18/6
f 146/19/7 4/12/7 12/13/7 13/20/7
f 2/2/8 145/14/8 9/15/8 10/3/8
f 144/6/9 143/16/9 6/18/9 7/7/9
f 5/10/10 146/19/10 13/20/10 14/11/10
f 11/4/11 10/3/11 19/21/11 20/22/11
f 8/8/12 7/7/12 16/23/12 17/24/12
f 78/25/13 14/11/13 23/26/13
f 12/13/14 11/4/14 20/22/14 21/27/14
f 9/15/15 8/8/15 17/24/15 18/28/15
f 6/18/16 88/29/16 15/30/16
f 13/20/17 12/13/17 21/27/17 22/31/17
f 10/3/18 9/15/18 18/28/18 19/21/18
f 7/7/19 6/18/19 15/30/19 16/23/19
f 14/11/20 13/20/20 22/31/20 23/26/20
f 16/23/21 15/30/21 24/32/21 25/33/21
f 23/26/22 22/31/22 31/34/22 32/35/22
f 20/22/23 19/21/23 28/36/23 29/37/23
f 17/24/24 16/23/24 25/33/24 26/38/24
f 78/39/25 23/26/25 32/35/25
f 21/27/26 20/22/26 29/37/26 30/40/26
f 18/28/27 17/24/27 26/38/27 27/41/27
f 15/30/28 88/42/28 24/32/28
f 22/31/29 21/27/29 30/40/29 31/34/29
f 19/21/30 18/28/30 27/41/30 28/36/30
f 28/36/31 27/41/31 36/43/31 37/44/31
f 25/33/32 24/32/32 33/45/32 34/46/32
f 32/35/33 31/34/33 40/47/33 41/48/33
f 29/37/34 28/36/34 37/44/34 38/49/34
f 26/38/35 25/33/35 34/46/35 35/50/35
f 78/51/36 32/35/36 41/48/36
f 30/40/37 29/37/37 38/49/37 39/52/37
f 27/41/38 26/38/38 35/50/38 36/43/38
f 24/32/39 88/53/39 33/45/39
f 31/34/40 30/40/40 39/52/40 40/47/40
f 33/45/41 88/54/41 42/55/41
f 40/47/42 39/52/42 48/56/42 49/57/42
f 37/44/43 36/43/43 45/58/43 46/59/43
f 34/46/44 33/45/44 42/55/44 43/60/44
f 41/48/45 40/47/45 49/57/45 50/61/45
f 38/49/46 37/44/46 46/59/46 47/62/46
f 35/50/47 34/46/47 43/60/47 44/63/47
f 78/64/48 41/48/48 50/61/48
f 39/52/49 38/49/49 47/62/49 48/56/49
f 36/43/50 35/50/50 44/63/50 45/58/50
f 48/56/51 47/62/51 56/65/51 57/66/51
f 45/58/52 44/63/52 53/67/52 54/68/52
f 42/55/53 88/69/53 51/70/53
f 49/57/54 48/56/54 57/66/54 58/71/54
f 46/59/55 45/58/55 54/68/55 55/72/55
f 43/60/56 42/55/56 51/70/56 52/73/56
f 50/61/57 49/57/57 58/71/57 59/74/57
f 47/62/58 46/59/58 55/72/58 56/65/58
f 44/63/59 43/60/59 52/73/59 53/67/59
f 78/75/60 50/61/60 59/74/60
f 53/67/61 52/73/61 61/76/61 62/77/61
f 78/78/62 59/74/62 68/79/62
f 57/66/63 56/65/63 65/80/63 66/81/63
f 54/68/64 53/67/64 62/77/64 63/82/64
f 51/70/65 88/83/65 60/84/65
f 58/71/66 57/66/66 66/81/66 67/85/66
f 55/72/67 54/68/67 63/82/67 64/86/67
f 52/73/68 51/70/68 60/84/68 61/76/68
f 59/74/69 58/71/69 67/85/69 68/79/69
f 56/65/70 55/72/70 64/86/70 65/80/70
f 65/80/71 64/86/71 73/87/71 74/88/71
f 62/77/72 61/76/72 70/89/72 71/90/72
f 78/91/73 68/79/73 77/92/73
f 66/81/74 65/80/74 74/88/74 75/93/74
f 63/82/75 62/77/75 71/90/75 72/94/75
f 60/84/76 88/95/76 69/96/76
f 67/85/77 66/81/77 75/93/77 76/97/77
f 64/86/78 63/82/78 72/94/78 73/87/78
f 61/76/79 60/84/79 69/96/79 70/89/79
f 68/79/80 67/85/80 76/97/80 77/92/80
f 70/89/81 69/96/81 79/98/81 80/99/81
f 77/92/82 76/97/82 86/100/82 87/101/82
f 74/88/83 73/87/83 83/102/83 84/103/83
f 71/90/84 70/89/84 80/99/84 81/104/84
f 78/105/85 77/92/85 87/101/85
f 75/93/86 74/88/86 84/103/86 85/106/86
f 72/94/87 71/90/87 81/104/87 82/107/87
f 69/96/88 88/108/88 79/98/88
f 76/97/89 75/93/89 85/106/89 86/100/89
f 73/87/90 72/94/90 82/107/90 83/102/90
f 86/100/91 85/106/91 95/109/91 96/110/91
f 83/102/92 82/107/92 92/111/92 93/112/92
f 80/99/93 79/98/93 89/113/93 90/114/93
f 87/101/94 86/100/94 96/110/94 97/115/94
f 84/103/95 83/102/95 93/112/95 94/116/95
f 81/104/96 80/99/96 90/114/96 91/117/96
f 78/118/97 87/101/97 97/115/97
f 85/106/98 84/103/98 94/116/98 95/109/98
f 82/107/99 81/104/99 91/117/99 92/111/99
f 79/98/100 88/119/100 89/113/100
f 92/111/101 91/117/101 100/120/101 101/121/101
f 89/113/102 88/122/102 98/123/102
f 96/110/103 95/109/103 104/124/103 105/125/103
f 93/112/104 92/111/104 101/121/104 102/126/104
f 90/114/105 89/113/105 98/123/105 99/127/105
f 97/115/106 96/110/106 105/125/106 106/128/106
f 94/116/107 93/112/107 102/126/107 103/129/107
f 91/117/108 90/114/108 99/127/108 100/120/108
f 78/130/109 97/115/109 106/128/109
f 95/109/110 94/116/110 103/129/110 104/124/110
f 104/124/111 103/129/111 112/131/111 113/132/111
f 101/121/112 100/120/112 109/133/112 110/134/112
f 98/123/113 88/135/113 107/136/113
f 105/125/114 104/124/114 113/132/114 114/137/114
f 102/126/115 101/121/115 110/134/115 111/138/115
f 99/127/116 98/123/116 107/136/116 108/139/116
f 106/128/117 105/125/117 114/137/117 115/140/117
f 103/129/118 102/126/118 111/138/118 112/131/118
f 100/120/119 99/127/119 108/139/119 109/133/119
f 78/141/120 106/128/120 115/140/120
f 109/142/121 108/143/121 117/144/121 118/145/121
f 78/146/122 115/147/122 124/148/122
f 113/149/123 112/150/123 121/151/123 122/152/123
f 110/153/124 109/142/124 118/145/124 119/154/124
f 107/155/125 88/156/125 116/157/125
f 114/158/126 113/149/126 122/152/126 123/159/126
f 111/160/127 110/153/127 119/154/127 120/161/127
f 108/143/128 107/155/128 116/157/128 117/144/128
f 115/147/129 114/158/129 123/159/129 124/148/129
f 112/150/130 111/160/130 120/161/130 121/151/130
f 124/148/131 123/159/131 132/162/131 133/163/131
f 121/151/132 120/161/132 129/164/132 130/165/132
f 118/145/133 117/144/133 126/166/133 127/167/133
f 78/168/134 124/148/134 133/163/134
f 122/152/135 121/151/135 130/165/135 131/169/135
f 119/154/136 118/145/136 127/167/136 128/170/136
f 116/157/137 88/171/137 125/172/137
f 123/159/138 122/152/138 131/169/138 132/162/138
f 120/161/139 119/154/139 128/170/139 129/164/139
f 117/144/140 116/157/140 125/172/140 126/166/140
f 129/164/141 128/170/141 137/173/141 138/174/141
f 126/166/142 125/172/142 134/175/142 135/176/142
f 133/163/143 132/162/143 141/177/143 142/178/143
f 130/165/144 129/164/144 138/174/144 139/179/144
f 127/167/145 126/166/145 135/176/145 136/180/145
f 78/181/146 133/163/146 142/178/146
f 131/169/147 130/165/147 139/179/147 140/182/147
f 128/170/148 127/167/148 136/180/148 137/173/148
f 125/172/149 88/183/149 134/175/149
f 132/162/150 131/169/150 140/182/150 141/177/150
f 134/175/151 88/184/151 143/16/151
f 141/177/152 140/182/152 4/12/152 146/19/152
f 138/174/153 137/173/153 145/14/153 2/2/153
f 135/176/154 134/175/154 143/16/154 144/6/154
f 142/178/155 141/177/155 146/19/155 5/10/155
f 139/179/156 138/174/156 2/2/156 3/1/156
f 136/180/157 135/176/157 144/6/157 1/5/157
f 78/185/158 142/178/158 5/10/158
f 140/182/159 139/179/159 3/1/159 4/12/159
f 137/173/160 136/180/160 1/5/160 145/14/160
